<?xml version="1.0" encoding="UTF-8"?>
<svg width="205px" height="255px" viewBox="0 0 205 255" version="1.1" xmlns="http://www.w3.org/2000/svg" xmlns:xlink="http://www.w3.org/1999/xlink">
    <!-- Generator: Sketch 57.1 (83088) - https://sketch.com -->
    <title>jacksmedia-bwred</title>
    <desc>Created with Sketch.</desc>
    <g id="Page-1" stroke="none" stroke-width="1" fill="none" fill-rule="evenodd">
        <g id="jacksmedia-bwred" transform="translate(9.000000, 9.000000)">
            <g id="path-1-link" fill="#B40D0D" stroke="#000000" stroke-width="18">
                <path d="M95.798017,0 L178.406093,0 L162.487185,23.083807 L162.487185,173.405524 C164.321377,178.030614 165.513563,183.699342 166.06374,190.411711 C166.613918,197.124079 167.001576,210.729997 167.226712,231.229466 C160.216072,228.476847 155.201387,226.001392 152.182658,223.803103 C149.163928,221.604814 145.252076,217.579816 140.447101,211.728109 C113.494262,229.591417 88.9083211,237.997519 66.6892789,236.946414 C33.3607157,235.369757 5.2463835,219.819894 0.44710414,176.731321 C-4.35217518,133.642747 30.7080112,120.279165 47.0580472,120.279165 C63.4080833,120.279165 85.676402,130.721402 85.676402,152.284539 C85.676402,173.847676 70.8203853,180.50032 58.4488338,179.096309 C47.3900492,177.84128 41.2761118,168.394537 41.2761118,162.689351 C41.2761118,156.984165 44.3444188,150.388019 52.943367,150.388019 C61.5423151,150.388019 61.9034691,155.130978 60.7040619,156.604309 C56.7151036,161.504275 61.9510994,159.790586 63.4080833,159.090061 C68.0841458,156.841789 66.6892789,135.306331 40.0251612,143.421708 C26.7171317,147.472083 22.4745929,163.050931 25.5392329,176.731321 C28.6038728,190.411711 45.8427533,210.015971 70.8203853,207.560813 C95.798017,205.105655 108.592354,197.892785 117.10664,176.731321 C117.10664,164.220908 117.10664,115.366279 117.10664,30.1674324 L95.798017,0 Z" id="path-1"></path>
            </g>
            <g id="path-1-link" stroke="#FFFFFF" stroke-width="15">
                <path d="M95.798017,0 L178.406093,0 L162.487185,23.083807 L162.487185,173.405524 C164.321377,178.030614 165.513563,183.699342 166.06374,190.411711 C166.613918,197.124079 167.001576,210.729997 167.226712,231.229466 C160.216072,228.476847 155.201387,226.001392 152.182658,223.803103 C149.163928,221.604814 145.252076,217.579816 140.447101,211.728109 C113.494262,229.591417 88.9083211,237.997519 66.6892789,236.946414 C33.3607157,235.369757 5.2463835,219.819894 0.44710414,176.731321 C-4.35217518,133.642747 30.7080112,120.279165 47.0580472,120.279165 C63.4080833,120.279165 85.676402,130.721402 85.676402,152.284539 C85.676402,173.847676 70.8203853,180.50032 58.4488338,179.096309 C47.3900492,177.84128 41.2761118,168.394537 41.2761118,162.689351 C41.2761118,156.984165 44.3444188,150.388019 52.943367,150.388019 C61.5423151,150.388019 61.9034691,155.130978 60.7040619,156.604309 C56.7151036,161.504275 61.9510994,159.790586 63.4080833,159.090061 C68.0841458,156.841789 66.6892789,135.306331 40.0251612,143.421708 C26.7171317,147.472083 22.4745929,163.050931 25.5392329,176.731321 C28.6038728,190.411711 45.8427533,210.015971 70.8203853,207.560813 C95.798017,205.105655 108.592354,197.892785 117.10664,176.731321 C117.10664,164.220908 117.10664,115.366279 117.10664,30.1674324 L95.798017,0 Z" id="path-1"></path>
            </g>
            <g id="path-1-link" stroke="#000000" stroke-width="11">
                <path d="M95.798017,0 L178.406093,0 L162.487185,23.083807 L162.487185,173.405524 C164.321377,178.030614 165.513563,183.699342 166.06374,190.411711 C166.613918,197.124079 167.001576,210.729997 167.226712,231.229466 C160.216072,228.476847 155.201387,226.001392 152.182658,223.803103 C149.163928,221.604814 145.252076,217.579816 140.447101,211.728109 C113.494262,229.591417 88.9083211,237.997519 66.6892789,236.946414 C33.3607157,235.369757 5.2463835,219.819894 0.44710414,176.731321 C-4.35217518,133.642747 30.7080112,120.279165 47.0580472,120.279165 C63.4080833,120.279165 85.676402,130.721402 85.676402,152.284539 C85.676402,173.847676 70.8203853,180.50032 58.4488338,179.096309 C47.3900492,177.84128 41.2761118,168.394537 41.2761118,162.689351 C41.2761118,156.984165 44.3444188,150.388019 52.943367,150.388019 C61.5423151,150.388019 61.9034691,155.130978 60.7040619,156.604309 C56.7151036,161.504275 61.9510994,159.790586 63.4080833,159.090061 C68.0841458,156.841789 66.6892789,135.306331 40.0251612,143.421708 C26.7171317,147.472083 22.4745929,163.050931 25.5392329,176.731321 C28.6038728,190.411711 45.8427533,210.015971 70.8203853,207.560813 C95.798017,205.105655 108.592354,197.892785 117.10664,176.731321 C117.10664,164.220908 117.10664,115.366279 117.10664,30.1674324 L95.798017,0 Z" id="path-1"></path>
            </g>
            <g id="path-1-link" stroke="#FFFFFF" stroke-width="6">
                <path d="M95.798017,0 L178.406093,0 L162.487185,23.083807 L162.487185,173.405524 C164.321377,178.030614 165.513563,183.699342 166.06374,190.411711 C166.613918,197.124079 167.001576,210.729997 167.226712,231.229466 C160.216072,228.476847 155.201387,226.001392 152.182658,223.803103 C149.163928,221.604814 145.252076,217.579816 140.447101,211.728109 C113.494262,229.591417 88.9083211,237.997519 66.6892789,236.946414 C33.3607157,235.369757 5.2463835,219.819894 0.44710414,176.731321 C-4.35217518,133.642747 30.7080112,120.279165 47.0580472,120.279165 C63.4080833,120.279165 85.676402,130.721402 85.676402,152.284539 C85.676402,173.847676 70.8203853,180.50032 58.4488338,179.096309 C47.3900492,177.84128 41.2761118,168.394537 41.2761118,162.689351 C41.2761118,156.984165 44.3444188,150.388019 52.943367,150.388019 C61.5423151,150.388019 61.9034691,155.130978 60.7040619,156.604309 C56.7151036,161.504275 61.9510994,159.790586 63.4080833,159.090061 C68.0841458,156.841789 66.6892789,135.306331 40.0251612,143.421708 C26.7171317,147.472083 22.4745929,163.050931 25.5392329,176.731321 C28.6038728,190.411711 45.8427533,210.015971 70.8203853,207.560813 C95.798017,205.105655 108.592354,197.892785 117.10664,176.731321 C117.10664,164.220908 117.10664,115.366279 117.10664,30.1674324 L95.798017,0 Z" id="path-1"></path>
            </g>
            <g id="path-1-link" stroke="#000000" stroke-width="2">
                <path d="M95.798017,0 L178.406093,0 L162.487185,23.083807 L162.487185,173.405524 C164.321377,178.030614 165.513563,183.699342 166.06374,190.411711 C166.613918,197.124079 167.001576,210.729997 167.226712,231.229466 C160.216072,228.476847 155.201387,226.001392 152.182658,223.803103 C149.163928,221.604814 145.252076,217.579816 140.447101,211.728109 C113.494262,229.591417 88.9083211,237.997519 66.6892789,236.946414 C33.3607157,235.369757 5.2463835,219.819894 0.44710414,176.731321 C-4.35217518,133.642747 30.7080112,120.279165 47.0580472,120.279165 C63.4080833,120.279165 85.676402,130.721402 85.676402,152.284539 C85.676402,173.847676 70.8203853,180.50032 58.4488338,179.096309 C47.3900492,177.84128 41.2761118,168.394537 41.2761118,162.689351 C41.2761118,156.984165 44.3444188,150.388019 52.943367,150.388019 C61.5423151,150.388019 61.9034691,155.130978 60.7040619,156.604309 C56.7151036,161.504275 61.9510994,159.790586 63.4080833,159.090061 C68.0841458,156.841789 66.6892789,135.306331 40.0251612,143.421708 C26.7171317,147.472083 22.4745929,163.050931 25.5392329,176.731321 C28.6038728,190.411711 45.8427533,210.015971 70.8203853,207.560813 C95.798017,205.105655 108.592354,197.892785 117.10664,176.731321 C117.10664,164.220908 117.10664,115.366279 117.10664,30.1674324 L95.798017,0 Z" id="path-1"></path>
            </g>
        </g>
    </g>
</svg>